<?xml version="1.0" encoding="utf-8"?>
<!-- Generator: Adobe Illustrator 23.0.3, SVG Export Plug-In . SVG Version: 6.00 Build 0)  -->
<svg version="1.1" id="Ebene_1" xmlns="http://www.w3.org/2000/svg" xmlns:xlink="http://www.w3.org/1999/xlink" x="0px" y="0px"
	 viewBox="0 0 435.3 50.5" style="enable-background:new 0 0 435.3 50.5;" xml:space="preserve">
<style type="text/css">
	.st0{clip-path:url(#SVGID_2_);fill:none;stroke:#FFFFFF;stroke-width:6.295;stroke-linecap:round;stroke-linejoin:round;}
	.st1{clip-path:url(#SVGID_2_);fill:none;stroke:#3BABAB;stroke-width:6.295;stroke-linecap:round;stroke-linejoin:round;}
</style>
<g>
	<defs>
		<rect id="SVGID_1_" x="0.8" y="1.2" width="434.1" height="48.4"/>
	</defs>
	<clipPath id="SVGID_2_">
		<use xlink:href="#SVGID_1_"  style="overflow:visible;"/>
	</clipPath>
	<line class="st0" x1="3.9" y1="44" x2="3.9" y2="5.2"/>
	<path class="st0" d="M29.3,7.5C18.9,2.9,3.9,5.2,3.9,22.7"/>
	<path class="st0" d="M175.5,45.7c11.5,0,20.8-9.1,20.8-20.3c0-11.2-9.3-20.3-20.8-20.3c-11.5,0-20.8,9.1-20.8,20.3
		C154.8,36.6,164.1,45.7,175.5,45.7z"/>
	<path class="st1" d="M65.4,24.7H85c0-11.2-8.3-20.3-19.6-20.3s-19.6,9.1-19.6,20.3S54.2,45,65.4,45c5.6,0,11.2-2,14.9-5.6"/>
	<path class="st0" d="M253.4,43.9V21.7c0-8.6-5.6-17.2-16.9-16.9C221.7,6,219.5,17,219.5,21.8V44"/>
	<line class="st0" x1="219.5" y1="44.4" x2="219.5" y2="4.4"/>
	<ellipse class="st0" cx="295.5" cy="25" rx="19.5" ry="20"/>
	<line class="st0" x1="314.9" y1="44.4" x2="314.9" y2="4.4"/>
	<path class="st0" d="M375,43.9V21.7c0-8.6-5.6-17.2-16.9-16.9C343.4,6,341.1,17,341.1,21.8V44"/>
	<line class="st0" x1="341.1" y1="44.4" x2="341.1" y2="4.4"/>
	<polyline class="st0" points="431.8,43.9 397.3,43.9 429.7,5.9 397.3,5.9 	"/>
	<path class="st0" d="M131.7,9.8c-3.8-2.6-22.9-8.9-24.1,5.8c-0.7,8.3,10.6,10.1,16.4,11.6c7.6,1.9,12.6,7.4,8.7,14.2
		c-5.7,9.9-24,3.1-26.6,0.1"/>
</g>
</svg>
